<?xml version="1.0" encoding="utf-8"?>
<!-- Generator: Adobe Illustrator 23.0.6, SVG Export Plug-In . SVG Version: 6.00 Build 0)  -->
<svg version="1.1" id="Layer_1" xmlns="http://www.w3.org/2000/svg" xmlns:xlink="http://www.w3.org/1999/xlink" x="0px" y="0px"
	 viewBox="0 0 483.4 310.1" style="enable-background:new 0 0 483.4 310.1;" xml:space="preserve">
<style type="text/css">
	.st0{fill:#231F20;stroke:#231F20;stroke-width:4.33;}
</style>
<title>AP_FILLED</title>
<g id="Letter_A">
	<path class="st0" d="M381.6,2.2c-28,0-46.1,10.4-64.1,31.1V8.5h-54.6v299.5h54.6V178c18.1,21.6,37,32,65.5,32
		c57.3,0,95.3-49.1,95.3-103.7C478.3,50.4,439.9,2.2,381.6,2.2z"/>
	<path class="st0" d="M166,33.3C148.4,13,128.1,2.2,101,2.2C43.7,2.2,6.2,50.9,6.2,105.6c0,56,37.5,104.8,96.2,104.8
		c25.7,0,48.8-10.8,63.7-32.1V204h55V8.5H166V33.3z"/>
</g>
</svg>
